HIERARCHY
ROOT Hips
{
	OFFSET 0.00000 0.00000 0.00000
	CHANNELS 6 Xposition Yposition Zposition Zrotation Yrotation Xrotation 
	JOINT LHipJoint
	{
		OFFSET 0 0 0
		CHANNELS 3 Zrotation Yrotation Xrotation
		JOINT LeftUpLeg
		{
			OFFSET 1.28858 -1.83292 1.03970
			CHANNELS 3 Zrotation Yrotation Xrotation
			JOINT LeftLeg
			{
				OFFSET 2.47846 -6.80952 0.00000
				CHANNELS 3 Zrotation Yrotation Xrotation
				JOINT LeftFoot
				{
					OFFSET 2.75274 -7.56311 0.00000
					CHANNELS 3 Zrotation Yrotation Xrotation
					JOINT LeftToeBase
					{
						OFFSET 0.12848 -0.35301 1.68223
						CHANNELS 3 Zrotation Yrotation Xrotation
						End Site
						{
							OFFSET 0.00000 -0.00000 0.87311
						}
					}
				}
			}
		}
	}
	JOINT RHipJoint
	{
		OFFSET 0 0 0
		CHANNELS 3 Zrotation Yrotation Xrotation
		JOINT RightUpLeg
		{
			OFFSET -1.31183 -1.83292 1.03970
			CHANNELS 3 Zrotation Yrotation Xrotation
			JOINT RightLeg
			{
				OFFSET -2.44740 -6.72417 0.00000
				CHANNELS 3 Zrotation Yrotation Xrotation
				JOINT RightFoot
				{
					OFFSET -2.67343 -7.34519 0.00000
					CHANNELS 3 Zrotation Yrotation Xrotation
					JOINT RightToeBase
					{
						OFFSET -0.16914 -0.46471 1.77626
						CHANNELS 3 Zrotation Yrotation Xrotation
						End Site
						{
							OFFSET -0.00000 -0.00000 0.92777
						}
					}
				}
			}
		}
	}
	JOINT LowerBack
	{
		OFFSET 0 0 0
		CHANNELS 3 Zrotation Yrotation Xrotation
		JOINT Spine
		{
			OFFSET 0.01249 2.14252 0.03842
			CHANNELS 3 Zrotation Yrotation Xrotation
			JOINT Spine1
			{
				OFFSET -0.02957 2.14199 -0.03751
				CHANNELS 3 Zrotation Yrotation Xrotation
				JOINT Neck
				{
					OFFSET 0 0 0
					CHANNELS 3 Zrotation Yrotation Xrotation
					JOINT Neck1
					{
						OFFSET -0.01678 1.65709 -0.05476
						CHANNELS 3 Zrotation Yrotation Xrotation
						JOINT Head
						{
							OFFSET 0.07912 1.58331 -0.11843
							CHANNELS 3 Zrotation Yrotation Xrotation
							End Site
							{
								OFFSET 0.03298 1.73940 -0.04271
							}
						}
					}
				}
				JOINT LeftShoulder
				{
					OFFSET 0 0 0
					CHANNELS 3 Zrotation Yrotation Xrotation
					JOINT LeftArm
					{
						OFFSET 3.39556 1.16496 0.08673
						CHANNELS 3 Zrotation Yrotation Xrotation
						JOINT LeftForeArm
						{
							OFFSET 5.23910 -0.00000 -0.00000
							CHANNELS 3 Zrotation Yrotation Xrotation
							JOINT LeftHand
							{
								OFFSET 3.31467 -0.00000 0.00000
								CHANNELS 3 Zrotation Yrotation Xrotation
								JOINT LeftFingerBase
								{
									OFFSET 0 0 0
									CHANNELS 3 Zrotation Yrotation Xrotation
									JOINT LeftHandIndex1
									{
										OFFSET 0.96590 -0.00000 0.00000
										CHANNELS 3 Zrotation Yrotation Xrotation
										End Site
										{
											OFFSET 0.77873 -0.00000 0.00000
										}
									}
								}
								JOINT LThumb
								{
									OFFSET 0 0 0
									CHANNELS 3 Zrotation Yrotation Xrotation
									End Site
									{
										OFFSET 0.79062 -0.00000 0.79062
									}
								}
							}
						}
					}
				}
				JOINT RightShoulder
				{
					OFFSET 0 0 0
					CHANNELS 3 Zrotation Yrotation Xrotation
					JOINT RightArm
					{
						OFFSET -3.27193 1.31331 0.33940
						CHANNELS 3 Zrotation Yrotation Xrotation
						JOINT RightForeArm
						{
							OFFSET -5.30252 -0.00000 0.00000
							CHANNELS 3 Zrotation Yrotation Xrotation
							JOINT RightHand
							{
								OFFSET -3.67875 -0.00000 0.00000
								CHANNELS 3 Zrotation Yrotation Xrotation
								JOINT RightFingerBase
								{
									OFFSET 0 0 0
									CHANNELS 3 Zrotation Yrotation Xrotation
									JOINT RightHandIndex1
									{
										OFFSET -0.59481 -0.00000 0.00000
										CHANNELS 3 Zrotation Yrotation Xrotation
										End Site
										{
											OFFSET -0.47955 -0.00000 0.00000
										}
									}
								}
								JOINT RThumb
								{
									OFFSET 0 0 0
									CHANNELS 3 Zrotation Yrotation Xrotation
									End Site
									{
										OFFSET -0.48687 -0.00000 0.48687
									}
								}
							}
						}
					}
				}
			}
		}
	}
}
MOTION
Frames: 5
Frame Time: .0083333
5.2039 9.3372 15.1752 -2.1883 9.6105 23.7532 0.0000 0.0000 0.0000 -3.0225 21.3219 -124.4709 7.6646 15.8670 51.3455 41.0511 17.8258 -172.0968 3.9043 12.0319 35.8450 0.0000 0.0000 0.0000 -1.2764 -20.2939 -114.5420 -8.0413 -16.1496 52.7113 -37.6265 -2.7448 151.5459 -0.2762 3.3806 -9.3403 -2.0036 -0.6782 53.9886 -2.1376 -1.5593 18.1092 -0.8156 -0.5662 -0.7669 -2.3277 -2.1269 4.3475 2.9401 -2.7710 -17.4796 1.4933 -1.4488 -5.9158 0.0000 0.0000 0.0000 66.0781 -82.1770 -92.1241 27.8761 -39.0019 -10.0456 -0.0000 0.0000 -2.3861 54.6830 -25.5078 -31.2923 -7.1250 0.0000 -0.0000 14.2361 -8.4895 -16.6672 0.0000 0.0000 0.0000 -50.4867 78.7311 -82.6657 -21.4315 32.3285 -6.2791 0.0000 -0.0000 -5.1710 -2.4412 -38.7216 1.5276 7.1250 -0.0000 -0.0000 40.7696 -64.1277 -20.5109
5.2195 9.5231 15.1861 -2.1528 9.4164 24.0030 0.0000 0.0000 0.0000 -3.1695 21.3716 -123.7790 7.9144 16.0559 52.2537 40.9054 16.7386 -171.1130 3.8925 12.0160 35.7885 0.0000 0.0000 0.0000 -1.5506 -19.9531 -113.3798 -8.4315 -16.4277 54.1025 -37.8163 -2.8396 152.7709 -0.3653 3.8823 -10.7458 -2.1903 -0.6568 53.1310 -2.2243 -1.6308 17.8910 -0.7890 -0.6098 -0.9397 -2.7242 -1.9359 3.8683 2.6484 -2.5770 -18.1437 1.4574 -1.2974 -6.0471 -0.0000 0.0000 0.0000 66.7136 -81.4133 -91.0385 24.8208 -36.0202 -8.1843 -0.0000 0.0000 -5.0038 52.6866 -25.6439 -29.5890 -7.1250 0.0000 -0.0000 13.1216 -7.5146 -15.1018 -0.0000 0.0000 0.0000 -53.8354 77.3976 -82.6910 -18.7343 29.0872 -4.9010 0.0000 -0.0000 -9.3310 3.9342 -40.8784 -2.5771 7.1250 -0.0000 -0.0000 49.9037 -63.8863 -25.8903
5.2357 9.7116 15.1958 -2.0986 9.1766 24.2627 0.0000 0.0000 0.0000 -3.3850 21.4517 -123.0737 8.1815 16.2511 53.2138 40.7649 15.7313 -170.0502 3.9708 12.1214 36.1628 0.0000 0.0000 0.0000 -1.8092 -19.5867 -112.2607 -8.8349 -16.7003 55.5174 -37.9922 -2.9951 153.9649 -0.4310 4.2132 -11.6773 -2.3998 -0.6116 52.1951 -2.2911 -1.6811 17.6573 -0.7370 -0.6472 -1.1112 -3.0874 -1.7080 3.5001 2.3044 -2.3377 -19.0748 1.4015 -1.1167 -6.2865 -0.0000 -0.0000 0.0000 66.8809 -80.6371 -89.1756 21.9559 -32.9271 -6.5618 -0.0000 0.0000 -7.1581 49.6751 -25.0177 -26.4836 -7.1250 0.0000 -0.0000 11.6545 -5.1651 -12.9161 -0.0000 -0.0000 0.0000 -55.7707 76.0375 -80.4522 -16.3877 26.0435 -3.8146 0.0000 -0.0000 -13.5780 9.7905 -43.3196 -6.7517 7.1250 -0.0000 -0.0000 58.8552 -63.7418 -31.8774
5.2524 9.9027 15.2053 -2.0382 8.8964 24.5566 0.0000 0.0000 0.0000 -3.6560 21.5645 -122.3471 8.4753 16.4580 54.2572 40.6334 14.8613 -168.9266 4.1027 12.2959 36.7869 0.0000 0.0000 0.0000 -2.0039 -19.1858 -111.2046 -9.2524 -16.9674 56.9589 -38.1482 -3.1788 155.0734 -0.4856 4.4685 -12.3987 -2.6376 -0.5406 51.1581 -2.3428 -1.7079 17.4230 -0.6629 -0.6773 -1.2597 -3.3256 -1.4479 3.2370 1.8790 -2.0610 -20.2617 1.2991 -0.9129 -6.6324 -0.0000 -0.0000 0.0000 66.8175 -79.8578 -86.7779 19.2836 -29.7695 -5.1709 -0.0000 0.0000 -8.8022 45.4705 -23.6927 -22.2193 -7.1250 0.0000 -0.0000 9.6406 -1.6567 -10.0571 -0.0000 -0.0000 0.0000 -55.6549 74.7282 -74.9308 -14.6723 23.6876 -3.0931 0.0000 -0.0000 -16.8590 13.9244 -45.0817 -9.9574 7.1250 -0.0000 -0.0000 65.1334 -63.5039 -36.3480
5.2696 10.0969 15.2163 -1.9934 8.5841 24.8867 0.0000 0.0000 0.0000 -3.9620 21.7219 -121.5836 8.8001 16.6773 55.3961 40.5134 14.1575 -167.7975 4.2330 12.4641 37.3942 0.0000 0.0000 0.0000 -2.0976 -18.7508 -110.1976 -9.6876 -17.2304 58.4390 -38.2845 -3.3813 156.0835 -0.5415 4.7149 -13.0971 -2.8965 -0.4560 50.0282 -2.3943 -1.7209 17.1948 -0.5824 -0.7028 -1.3756 -3.3771 -1.1555 3.0293 1.3607 -1.7456 -21.6245 1.1319 -0.6891 -7.0528 -0.0000 -0.0000 0.0000 66.4609 -79.0717 -83.7718 16.8110 -26.6080 -4.0023 -0.0000 0.0000 -9.8653 39.9284 -21.7471 -17.2290 -7.1250 0.0000 -0.0000 6.8383 2.6667 -6.5603 -0.0000 -0.0000 0.0000 -53.2113 73.4055 -65.4288 -13.8134 22.4674 -2.7564 0.0000 -0.0000 -18.1720 16.3299 -45.5145 -11.8063 7.1250 -0.0000 -0.0000 67.7305 -63.0237 -37.7715
